<mxfile host="app.diagrams.net" modified="2022-11-03T06:54:25.297Z" agent="5.0 (Windows NT 10.0; Win64; x64) AppleWebKit/537.36 (KHTML, like Gecko) Chrome/106.0.0.0 Safari/537.36" etag="y0EIE-Dkzb73GoETXCCh" version="20.5.1" type="github">
  <diagram id="zUOd78d8kLE70ywTMAmB" name="Страница 1">
    <mxGraphModel dx="1185" dy="635" grid="1" gridSize="10" guides="1" tooltips="1" connect="1" arrows="1" fold="1" page="1" pageScale="1" pageWidth="827" pageHeight="1169" math="0" shadow="0">
      <root>
        <mxCell id="0" />
        <mxCell id="1" parent="0" />
        <mxCell id="Dt5027v7Hb0-dLlWJPYE-3" value="" style="edgeStyle=orthogonalEdgeStyle;rounded=0;orthogonalLoop=1;jettySize=auto;html=1;" edge="1" parent="1" source="Dt5027v7Hb0-dLlWJPYE-1">
          <mxGeometry relative="1" as="geometry">
            <mxPoint x="400" y="160" as="targetPoint" />
          </mxGeometry>
        </mxCell>
        <mxCell id="Dt5027v7Hb0-dLlWJPYE-1" value="Прайс-лист создан" style="ellipse;whiteSpace=wrap;html=1;aspect=fixed;" vertex="1" parent="1">
          <mxGeometry x="360" y="40" width="80" height="80" as="geometry" />
        </mxCell>
        <mxCell id="Dt5027v7Hb0-dLlWJPYE-8" value="" style="edgeStyle=orthogonalEdgeStyle;rounded=0;orthogonalLoop=1;jettySize=auto;html=1;entryX=0.5;entryY=0;entryDx=0;entryDy=0;" edge="1" parent="1" source="Dt5027v7Hb0-dLlWJPYE-4" target="Dt5027v7Hb0-dLlWJPYE-13">
          <mxGeometry relative="1" as="geometry">
            <mxPoint x="400" y="250" as="targetPoint" />
          </mxGeometry>
        </mxCell>
        <mxCell id="Dt5027v7Hb0-dLlWJPYE-4" value="Редактирование&lt;br&gt;&amp;nbsp;прайс-листа" style="rounded=1;whiteSpace=wrap;html=1;" vertex="1" parent="1">
          <mxGeometry x="340" y="160" width="120" height="60" as="geometry" />
        </mxCell>
        <mxCell id="Dt5027v7Hb0-dLlWJPYE-21" style="edgeStyle=orthogonalEdgeStyle;rounded=0;orthogonalLoop=1;jettySize=auto;html=1;entryX=0.5;entryY=0;entryDx=0;entryDy=0;" edge="1" parent="1" source="Dt5027v7Hb0-dLlWJPYE-13" target="Dt5027v7Hb0-dLlWJPYE-24">
          <mxGeometry relative="1" as="geometry">
            <mxPoint x="240" y="320" as="targetPoint" />
            <Array as="points">
              <mxPoint x="240" y="300" />
            </Array>
          </mxGeometry>
        </mxCell>
        <mxCell id="Dt5027v7Hb0-dLlWJPYE-29" style="edgeStyle=orthogonalEdgeStyle;rounded=0;orthogonalLoop=1;jettySize=auto;html=1;exitX=1;exitY=0.5;exitDx=0;exitDy=0;entryX=0.5;entryY=0;entryDx=0;entryDy=0;" edge="1" parent="1" source="Dt5027v7Hb0-dLlWJPYE-13" target="Dt5027v7Hb0-dLlWJPYE-31">
          <mxGeometry relative="1" as="geometry">
            <mxPoint x="580" y="320" as="targetPoint" />
            <Array as="points">
              <mxPoint x="560" y="300" />
            </Array>
          </mxGeometry>
        </mxCell>
        <mxCell id="Dt5027v7Hb0-dLlWJPYE-13" value="Загрузить" style="rhombus;whiteSpace=wrap;html=1;" vertex="1" parent="1">
          <mxGeometry x="360" y="260" width="80" height="80" as="geometry" />
        </mxCell>
        <mxCell id="Dt5027v7Hb0-dLlWJPYE-18" style="edgeStyle=orthogonalEdgeStyle;rounded=0;orthogonalLoop=1;jettySize=auto;html=1;exitX=0.5;exitY=1;exitDx=0;exitDy=0;" edge="1" parent="1" source="Dt5027v7Hb0-dLlWJPYE-4" target="Dt5027v7Hb0-dLlWJPYE-4">
          <mxGeometry relative="1" as="geometry" />
        </mxCell>
        <mxCell id="Dt5027v7Hb0-dLlWJPYE-24" value="Соответствие колонок" style="rounded=1;whiteSpace=wrap;html=1;" vertex="1" parent="1">
          <mxGeometry x="180" y="340" width="120" height="60" as="geometry" />
        </mxCell>
        <mxCell id="Dt5027v7Hb0-dLlWJPYE-25" value="Файл выбран" style="text;html=1;align=center;verticalAlign=middle;resizable=0;points=[];autosize=1;strokeColor=none;fillColor=none;" vertex="1" parent="1">
          <mxGeometry x="260" y="270" width="100" height="30" as="geometry" />
        </mxCell>
        <mxCell id="Dt5027v7Hb0-dLlWJPYE-30" value="Файл&amp;nbsp;не выбран" style="text;html=1;align=center;verticalAlign=middle;resizable=0;points=[];autosize=1;strokeColor=none;fillColor=none;" vertex="1" parent="1">
          <mxGeometry x="440" y="270" width="110" height="30" as="geometry" />
        </mxCell>
        <mxCell id="Dt5027v7Hb0-dLlWJPYE-32" style="edgeStyle=orthogonalEdgeStyle;rounded=0;orthogonalLoop=1;jettySize=auto;html=1;exitX=0;exitY=0.5;exitDx=0;exitDy=0;entryX=0.5;entryY=1;entryDx=0;entryDy=0;" edge="1" parent="1" source="Dt5027v7Hb0-dLlWJPYE-31" target="Dt5027v7Hb0-dLlWJPYE-13">
          <mxGeometry relative="1" as="geometry" />
        </mxCell>
        <mxCell id="Dt5027v7Hb0-dLlWJPYE-31" value="Предупреждение Файл не найден." style="rounded=1;whiteSpace=wrap;html=1;" vertex="1" parent="1">
          <mxGeometry x="500" y="340" width="120" height="60" as="geometry" />
        </mxCell>
      </root>
    </mxGraphModel>
  </diagram>
</mxfile>
